# xmcd
#
# Track frame offsets: 
#        150
#        18587
#        36827
#        55030
#        70705
#        92992
#        114737
#        137130
#        156465
#        179857
#        201600
#        224897
#        244960
#        266395
#
# Disc length: 3811 seconds
#
# Revision: 4
# Processed by: cddbd v1.5.2PL0 Copyright (c) Steve Scherf et al.
# Submitted via: ExactAudioCopy v1.3
#
DISCID=e50ee10e
DTITLE=Various Artist - Strictly Swing - Volume 2
DYEAR=1996
DGENRE=R&B
TTITLE0=Jodeci - Love U 4 Life [Mr Dalvin Remix]
TTITLE1=Aaron Hall Feat. Missy Elliott - Curiosity [Marley Marl Remix]
TTITLE1=(Feat. Missy Elliott)
TTITLE2=Lost Boyz - Get Up
TTITLE3=Soul For Real - If You Want It [Bad Boy Remix]
TTITLE4=Guy - Tell Me What You Like [Linslee Remix]
TTITLE5=Charisse Arrington - Down With This [Harlem Nu World Mix]
TTITLE6=Immature - We Got It [Marley Marl Pirate Remix Pt.1]
TTITLE7=Jodeci - Get On Up [Mr. Dalvin Remix]
TTITLE8=Jesse Powell - All I Need [Dr Freeze Street Version]
TTITLE9=C&C Music Factory - I'll Always Be Around [Ghetto Mix] (Feat. 
TTITLE9=Lost Boyz)
TTITLE10=Soul For Real - Every Little Thing I Do [Linslee Remix]
TTITLE11=GZA - Cold World [RZA Mix]
TTITLE12=Nonchalant - 5 O'Clock
TTITLE13=Monifah Feat. AZ - I Miss You [Come Back Home][Remix]
EXTD=
EXTT0=
EXTT1=
EXTT2=
EXTT3=
EXTT4=
EXTT5=
EXTT6=
EXTT7=
EXTT8=
EXTT9=
EXTT10=
EXTT11=
EXTT12=
EXTT13=
PLAYORDER=
